<?xml version="1.0" encoding="UTF-8" standalone="no"?>
<!DOCTYPE svg PUBLIC "-//W3C//DTD SVG 1.1//EN"
 "http://www.w3.org/Graphics/SVG/1.1/DTD/svg11.dtd">
<!-- Generated by graphviz version 2.43.0 (0)
 -->
<!-- Title: examples/esp32/main/esp32_tle92466ed_test_config.hpp Pages: 1 -->
<svg width="521pt" height="224pt"
 viewBox="0.00 0.00 521.00 224.00" xmlns="http://www.w3.org/2000/svg" xmlns:xlink="http://www.w3.org/1999/xlink">
<g id="graph0" class="graph" transform="scale(1 1) rotate(0) translate(4 220)">
<title>examples/esp32/main/esp32_tle92466ed_test_config.hpp</title>
<!-- Node1 -->
<g id="Node000001" class="node">
<title>Node1</title>
<g id="a_Node000001"><a xlink:title=" ">
<polygon fill="#999999" stroke="#666666" points="328,-216 167,-216 167,-163 328,-163 328,-216"/>
<text text-anchor="start" x="175" y="-200.8" font-family="Arial" font-size="14.00">examples/esp32/main</text>
<text text-anchor="start" x="175" y="-185.8" font-family="Arial" font-size="14.00">/esp32_tle92466ed_test</text>
<text text-anchor="middle" x="247.5" y="-170.8" font-family="Arial" font-size="14.00">_config.hpp</text>
</a>
</g>
</g>
<!-- Node2 -->
<g id="Node000002" class="node">
<title>Node2</title>
<g id="a_Node000002"><a xlink:href="esp32__tle92466ed__bus_8hpp.html" target="_top" xlink:title="ESP32 Communication Interface implementation for TLE92466ED driver.">
<polygon fill="white" stroke="#666666" points="341,-127 154,-127 154,-89 341,-89 341,-127"/>
<text text-anchor="start" x="162" y="-111.8" font-family="Arial" font-size="14.00">examples/esp32/main</text>
<text text-anchor="middle" x="247.5" y="-96.8" font-family="Arial" font-size="14.00">/esp32_tle92466ed_bus.hpp</text>
</a>
</g>
</g>
<!-- Node1&#45;&gt;Node2 -->
<g id="edge1_Node000001_Node000002" class="edge">
<title>Node1&#45;&gt;Node2</title>
<g id="a_edge1_Node000001_Node000002"><a xlink:title=" ">
<path fill="none" stroke="#63b8ff" d="M247.5,-152.77C247.5,-143.94 247.5,-134.84 247.5,-127.24"/>
<polygon fill="#63b8ff" stroke="#63b8ff" points="244,-152.91 247.5,-162.91 251,-152.91 244,-152.91"/>
</a>
</g>
</g>
<!-- Node4 -->
<g id="Node000004" class="node">
<title>Node4</title>
<g id="a_Node000004"><a xlink:href="lm__pro__cycle__test_8cpp.html" target="_top" xlink:title="Real&#45;hardware Parker LM&#45;Pro proportional valve cycle test on TLE92466ED CH5 (driver channel 6 in 1&#45;in...">
<polygon fill="white" stroke="#666666" points="155,-45.5 0,-45.5 0,-7.5 155,-7.5 155,-45.5"/>
<text text-anchor="start" x="8" y="-30.3" font-family="Arial" font-size="14.00">examples/esp32/main</text>
<text text-anchor="middle" x="77.5" y="-15.3" font-family="Arial" font-size="14.00">/lm_pro_cycle_test.cpp</text>
</a>
</g>
</g>
<!-- Node1&#45;&gt;Node4 -->
<g id="edge5_Node000001_Node000004" class="edge">
<title>Node1&#45;&gt;Node4</title>
<g id="a_edge5_Node000001_Node000004"><a xlink:title=" ">
<path fill="none" stroke="#63b8ff" d="M186.6,-157.61C172.26,-148.82 157.64,-138.47 145.5,-127 119.8,-102.72 98.39,-67.13 86.82,-45.75"/>
<polygon fill="#63b8ff" stroke="#63b8ff" points="185.09,-160.78 195.47,-162.89 188.67,-154.77 185.09,-160.78"/>
</a>
</g>
</g>
<!-- Node5 -->
<g id="Node000005" class="node">
<title>Node5</title>
<g id="a_Node000005"><a xlink:href="solenoid__control__test_8cpp.html" target="_top" xlink:title="Real Hardware Solenoid Control Test with ADC&#45;Based Current Control.">
<polygon fill="white" stroke="#666666" points="513,-45.5 340,-45.5 340,-7.5 513,-7.5 513,-45.5"/>
<text text-anchor="start" x="348" y="-30.3" font-family="Arial" font-size="14.00">examples/esp32/main</text>
<text text-anchor="middle" x="426.5" y="-15.3" font-family="Arial" font-size="14.00">/solenoid_control_test.cpp</text>
</a>
</g>
</g>
<!-- Node1&#45;&gt;Node5 -->
<g id="edge6_Node000001_Node000005" class="edge">
<title>Node1&#45;&gt;Node5</title>
<g id="a_edge6_Node000001_Node000005"><a xlink:title=" ">
<path fill="none" stroke="#63b8ff" d="M307.5,-157.89C322.33,-148.96 337.64,-138.47 350.5,-127 377.91,-102.55 402.25,-67.02 415.63,-45.69"/>
<polygon fill="#63b8ff" stroke="#63b8ff" points="305.7,-154.89 298.84,-162.97 309.24,-160.93 305.7,-154.89"/>
</a>
</g>
</g>
<!-- Node3 -->
<g id="Node000003" class="node">
<title>Node3</title>
<g id="a_Node000003"><a xlink:href="driver__integration__test_8cpp.html" target="_top" xlink:title="Comprehensive Integration Test Suite for TLE92466ED Driver.">
<polygon fill="white" stroke="#666666" points="322,-53 173,-53 173,0 322,0 322,-53"/>
<text text-anchor="start" x="181" y="-37.8" font-family="Arial" font-size="14.00">examples/esp32/main</text>
<text text-anchor="start" x="181" y="-22.8" font-family="Arial" font-size="14.00">/driver_integration</text>
<text text-anchor="middle" x="247.5" y="-7.8" font-family="Arial" font-size="14.00">_test.cpp</text>
</a>
</g>
</g>
<!-- Node2&#45;&gt;Node3 -->
<g id="edge2_Node000002_Node000003" class="edge">
<title>Node2&#45;&gt;Node3</title>
<g id="a_edge2_Node000002_Node000003"><a xlink:title=" ">
<path fill="none" stroke="#63b8ff" d="M247.5,-78.83C247.5,-70.42 247.5,-61.24 247.5,-53"/>
<polygon fill="#63b8ff" stroke="#63b8ff" points="244,-78.96 247.5,-88.96 251,-78.96 244,-78.96"/>
</a>
</g>
</g>
<!-- Node2&#45;&gt;Node4 -->
<g id="edge3_Node000002_Node000004" class="edge">
<title>Node2&#45;&gt;Node4</title>
<g id="a_edge3_Node000002_Node000004"><a xlink:title=" ">
<path fill="none" stroke="#63b8ff" d="M199.86,-84.72C173.45,-72.37 141.05,-57.22 116.22,-45.61"/>
<polygon fill="#63b8ff" stroke="#63b8ff" points="198.38,-87.89 208.92,-88.96 201.35,-81.55 198.38,-87.89"/>
</a>
</g>
</g>
<!-- Node2&#45;&gt;Node5 -->
<g id="edge4_Node000002_Node000005" class="edge">
<title>Node2&#45;&gt;Node5</title>
<g id="a_edge4_Node000002_Node000005"><a xlink:title=" ">
<path fill="none" stroke="#63b8ff" d="M297.3,-84.88C325.17,-72.5 359.48,-57.27 385.73,-45.61"/>
<polygon fill="#63b8ff" stroke="#63b8ff" points="295.84,-81.7 288.12,-88.96 298.68,-88.1 295.84,-81.7"/>
</a>
</g>
</g>
</g>
</svg>
